<?xml version="1.0" encoding="utf-8"?>
<!-- Generator: Adobe Illustrator 22.0.0, SVG Export Plug-In . SVG Version: 6.00 Build 0)  -->
<svg version="1.1" id="Capa_1" xmlns="http://www.w3.org/2000/svg" xmlns:xlink="http://www.w3.org/1999/xlink" x="0px" y="0px"
	  style="margin-top: 4rem;" xml:space="preserve">
<style type="text/css">
	.st0{fill:#FFFFFF;
  animation: myfirst 5s infinite;
  animation-direction: alternate;}

    
@keyframes myfirst {
  0%   {fill: #FFE7C7; left: 0px; top: 0px;}
  25%  {fill: #FFFFC7; left: 0px; top: 0px;}
  50%  {fill: #D7FFC7; left: 0px; top: 0px;}
  75%  {fill: #C7FFE6; left: 0px; top: 0px;}
  100% {fill: #DDC7FF; left: 0px; top: 0px;}
}
</style>
<path class="st0" d="M162.6,12.2c-2.8-1.1-5.6-2-8.5-2.8c-2.9-0.8-5.8-1.4-8.7-1.7c-2.9-0.3-5.9-0.4-8.7,0c-2.8,0.4-5.6,1.3-7.7,3
	c-1.1,0.8-2,1.8-2.7,3c-0.2,0.3-0.4,0.6-0.6,0.9l-0.6,1c-0.4,0.6-0.8,1.3-1.1,1.9c-1.5,2.5-3,5.1-4.4,7.7
	c-2.9,5.2-5.7,10.4-8.2,15.7l-0.5,1l-1.2,0.1c-7,0.5-14,1.1-20.9,2c-6.9,0.9-13.9,1.8-20.6,3.4c-1.7,0.4-3.3,0.9-4.8,1.4
	c-1.5,0.6-3,1.2-4,2c-2.8,2.2-5.7,4.3-8.9,6.2c-3.1,1.9-6.4,3.6-9.9,4.8c-3.5,1.2-7.3,2-11.1,2c-3.8,0-7.6-0.7-11.1-2
	c-3.5-1.3-6.9-3.2-9.6-5.9c-1.4-1.4-2.6-2.9-3.5-4.8c-0.9-1.8-1.4-3.9-1.2-6c0.2-2.1,1-4.1,2.3-5.7c1.2-1.6,2.7-2.9,4.3-3.9
	c1.6-1,3.3-1.8,5-2.4c0.9-0.3,1.7-0.6,2.6-0.9l2.6-0.8c3.4-1,6.9-1.8,10.3-2.5c3.5-0.7,7-1.3,10.5-1.8c1.8-0.2,3.5-0.5,5.3-0.6
	c1.8-0.2,3.5-0.3,5.3-0.4c-7,1.1-13.8,2.7-20.6,4.6c-3.4,0.9-6.7,2-10,3.1L19,34.7c-0.8,0.3-1.6,0.6-2.4,0.9c-1.5,0.7-3,1.5-4.4,2.4
	c-1.3,0.9-2.5,2.1-3.4,3.3C8,42.6,7.5,44,7.4,45.4c-0.1,1.4,0.3,2.9,1,4.2c0.7,1.3,1.7,2.5,2.9,3.6c2.4,2.1,5.3,3.7,8.5,4.8
	c3.1,1.1,6.4,1.6,9.6,1.5c3.3-0.1,6.5-0.8,9.6-1.9c3.1-1.1,6.2-2.7,9-4.4c2.9-1.8,5.7-3.8,8.4-6l0.3-0.2l0.3-0.3
	c0.2-0.1,0.5-0.3,0.7-0.4c0.5-0.3,0.9-0.5,1.4-0.7c0.9-0.4,1.8-0.8,2.7-1.1c1.8-0.6,3.5-1.1,5.3-1.5c3.5-0.9,7.1-1.5,10.6-2
	c3.5-0.5,7.1-1,10.6-1.3c7.1-0.7,14.1-1.2,21.2-1.5l-1.7,1.1c2.8-5.4,5.8-10.5,8.9-15.7c1.6-2.6,3.2-5.1,4.9-7.6
	c0.4-0.6,0.8-1.2,1.3-1.9l0.6-0.9c0.2-0.3,0.4-0.6,0.7-0.9c0.9-1.3,2.1-2.5,3.4-3.4c2.7-1.9,5.9-2.7,8.9-3c3.1-0.2,6.1,0,9.1,0.6
	C151.6,7.4,157.2,9.5,162.6,12.2z"/>
<path class="st0" d="M119.6,28.2l1.7-0.9c0,0,1.1-2.8,4.5-2.8s7.1-0.4,7.1,3.1s-2,4.9-5.8,4.9s-5.2-1.5-6.6-1.5
	C119.2,31.1,119.1,28.9,119.6,28.2z"/>
<polygon class="st0" points="109.9,37.3 165.2,28.1 110.8,41.8 "/>
<path class="st0" d="M106.2,51.7c0.8-0.6,1.7-1.1,2.5-1.6c0.9-0.5,1.8-0.9,2.8-1.2c1.9-0.7,4.1-1,6.3-0.7c1.1,0.2,2.3,0.5,3.3,1.1
	c1,0.6,2,1.4,2.7,2.4c0.7,0.9,1.2,2,1.6,3.1c0.2,0.5,0.3,1,0.4,1.5l0.2,0.8l0.1,0.8c0.4,2.1,0.4,4.2,0.2,6.3
	c-0.2,2.1-0.8,4.1-1.5,6.1c-0.8,1.9-1.7,3.7-2.9,5.4c-0.3,0.4-0.6,0.8-0.9,1.2c-0.3,0.4-0.6,0.8-1,1.1c-0.7,0.7-1.4,1.4-2.3,2
	c1-1.7,1.9-3.4,2.6-5.2c0.7-1.8,1.3-3.6,1.7-5.4c0.4-1.8,0.7-3.6,0.8-5.5c0-0.2,0-0.5,0-0.7l0-0.7c0-0.5,0-0.9,0-1.4l-0.1-1.3
	c-0.1-0.4-0.2-0.9-0.2-1.3l-0.1-0.7l-0.2-0.7c-0.1-0.4-0.2-0.9-0.3-1.3c-0.2-0.8-0.6-1.5-1-2.2c-0.8-1.3-2.1-2.2-3.7-2.7
	c-1.6-0.5-3.5-0.5-5.4-0.3C110,50.8,108.1,51.2,106.2,51.7z"/>
<path class="st0" d="M113.4,44.7c-2.4,0.4-4.5,1.3-6.5,2.5c-1.9,1.2-3.6,2.8-5.1,4.5l-1.1,1.3l-1,1.4c-0.2,0.2-0.3,0.5-0.5,0.7
	L99,56c-0.3,0.5-0.6,1-0.9,1.5l-1.6,3.2c-0.5,1.1-0.9,2.2-1.5,3.3c0.1-1.2,0.3-2.4,0.5-3.6c0.3-1.2,0.6-2.4,1-3.5
	c0.2-0.6,0.5-1.1,0.7-1.7l0.4-0.8c0.1-0.3,0.3-0.5,0.5-0.8l1-1.6c0.4-0.5,0.8-1,1.1-1.5c1.6-1.9,3.6-3.6,5.9-4.6
	C108.5,44.7,111,44.2,113.4,44.7z"/>
<path class="st0" d="M102.8,42.3c-0.1,0.2-0.1,0.3-0.2,0.4l-0.1,0.3c-0.1,0.2-0.2,0.4-0.3,0.7c-0.2,0.4-0.4,0.8-0.7,1.3
	c-0.5,0.8-1,1.6-1.5,2.3c-1.1,1.5-2.3,2.9-3.7,4.1c-2.7,2.4-6,4.2-9.4,5.2c-3.4,1-7,1.4-10.4,1c-1.7-0.2-3.4-0.5-5.1-1.1
	c-1.6-0.5-3.2-1.2-4.6-2.1c1.5,0.7,3.2,1.2,4.8,1.5c1.6,0.3,3.3,0.4,4.9,0.4c3.3-0.1,6.5-0.9,9.4-2.2c3-1.3,5.6-3.1,7.7-5.3
	c1.1-1.1,2-2.4,2.8-3.7c0.4-0.7,0.7-1.3,1-2c0.1-0.3,0.3-0.7,0.4-1c0.1-0.2,0.1-0.3,0.2-0.5l0.1-0.2c0-0.1,0-0.2,0-0.2L102.8,42.3z"
	/>
<path class="st0" d="M13.2,42.4c2.6,1,5.1,1.9,7.6,2.7c2.5,0.8,4.9,1.6,7.4,2.2c1.2,0.3,2.5,0.6,3.7,0.8c0.6,0.1,1.3,0.2,1.9,0.3
	l1,0.2c0.3,0,0.6,0.1,1,0.1c0.6,0.1,1.3,0.2,1.9,0.3c0.6,0,1.3,0.1,2,0.1c0.3,0,0.7,0.1,1,0.1c0.3,0,0.7,0,1,0
	c0.7,0,1.4,0.1,2.1,0.1c-0.6,0.3-1.3,0.6-1.9,0.8c-0.3,0.1-0.7,0.3-1,0.4c-0.3,0.1-0.7,0.2-1,0.3c-0.7,0.2-1.4,0.3-2.1,0.5
	c-0.7,0.1-1.4,0.2-2.1,0.2c-0.4,0-0.7,0.1-1.1,0.1l-1.1,0c-0.7,0-1.4,0-2.1-0.1c-0.7-0.1-1.4-0.2-2.1-0.3c-0.7-0.1-1.4-0.3-2.1-0.4
	c-2.7-0.7-5.3-1.7-7.7-3.2C17.1,46.3,14.9,44.6,13.2,42.4z"/>
<path class="st0" d="M0.7,61.8c0.1,1.1,0.5,2.1,1,3c0.6,0.8,1.3,1.5,2.1,2C4,66.8,4.2,67,4.5,67l0.6,0.3l0.7,0.2
	c0.2,0.1,0.5,0.2,0.7,0.2C7,67.9,7.5,68.1,8,68.1c0.5,0.1,1,0.2,1.5,0.2c4.3,0.5,8.6,1,12.9,1.6c8.6,1.1,17.2,2.4,25.8,3.6
	c2.1,0.3,4.3,0.6,6.4,1c2.1,0.3,4.3,0.6,6.4,0.9c4.3,0.6,8.5,1.2,12.7,1.6c1,0.1,2.1,0.2,3.1,0.2c1,0.1,2.1,0.1,3.1,0.1
	c1,0,2-0.1,2.9-0.2c0.4-0.1,0.9-0.1,1.2-0.2c0.2,0,0.3-0.1,0.5-0.2l0.7-0.4c0.9-0.5,1.8-1,2.6-1.6c0.8-0.6,1.6-1.2,2.2-2
	c0.6-0.7,1.2-1.6,1.4-2.5c0.1-0.5,0.1-1,0.1-1.5c0-0.2-0.1-0.5-0.2-0.7c-0.1-0.2-0.3-0.5-0.5-0.5c0.3,0,0.6,0.1,0.8,0.3
	c0.2,0.2,0.4,0.4,0.6,0.7c0.3,0.5,0.5,1.1,0.6,1.8c0.1,1.3-0.2,2.5-0.7,3.6c-1,2.3-2.7,4.1-4.4,5.7l-0.7,0.6
	c-0.3,0.2-0.6,0.5-0.9,0.6c-0.6,0.4-1.3,0.6-1.9,0.9c-1.2,0.5-2.4,0.7-3.6,1c-2.3,0.4-4.6,0.7-6.9,0.8c-1.1,0.1-2.3,0.1-3.4,0.1
	c-1.1,0-2.2,0-3.4,0c-2.2,0-4.5-0.2-6.7-0.3c-2.2-0.2-4.4-0.4-6.6-0.6c-2.2-0.3-4.4-0.6-6.6-0.9c-8.7-1.3-17.3-3.1-25.8-5.5
	c-4.2-1.2-8.4-2.4-12.6-4c-2.2-0.8-4.5-1.9-6.1-3.8c-0.8-0.9-1.5-2-1.8-3.2C0.3,64.1,0.3,62.8,0.7,61.8z"/>
<path class="st0" d="M110.2,40.1c-0.9-0.4-1.9-0.8-2.9-1.1c-1-0.4-2-0.7-3-1.1c-2-0.7-4.1-1.4-6.1-2.1c-4.1-1.3-8.2-2.5-12.4-3.6
	c-4.2-1.1-8.4-1.9-12.7-2.7c-4.3-0.7-8.6-1.2-12.9-1.5c4.3-0.4,8.7-0.6,13.1-0.5c4.4,0.1,8.8,0.3,13.2,0.8c4.4,0.4,8.8,1,13.1,1.7
	c2.2,0.4,4.4,0.7,6.5,1.2c1.1,0.2,2.2,0.4,3.3,0.7c1.1,0.2,2.2,0.5,3.3,0.7L110.2,40.1z"/>
<path class="st0" d="M125.2,11.8L125.2,11.8C125.3,11.9,125.3,11.9,125.2,11.8L125.2,11.8c-0.1-0.1-0.1-0.1-0.2-0.2
	c-0.1-0.1-0.2-0.2-0.4-0.3c-0.3-0.2-0.6-0.5-0.9-0.7l-0.5-0.3l-0.6-0.3c-0.4-0.2-0.7-0.4-1.1-0.6l-1.2-0.5l-1.3-0.4
	c-0.8-0.3-1.7-0.5-2.6-0.7c-3.6-0.9-7.3-1.2-11.1-1.4c-0.9,0-1.9,0-2.8,0l-1.4,0l-0.7,0l-0.7,0l-2.9,0.1c-1,0-1.9,0.1-2.9,0.2
	l-2.9,0.2c-1,0.1-1.9,0.1-2.9,0.3l-5.7,0.7l5.6-1.4C89.1,6.2,90.1,6,91,5.8l2.8-0.6c0.9-0.2,1.9-0.3,2.9-0.5l2.9-0.4l0.7-0.1
	l0.7-0.1l1.4-0.2c1-0.1,1.9-0.2,2.9-0.3c3.9-0.3,7.8-0.3,11.8,0.2c1,0.1,2,0.2,3,0.5l1.5,0.3l1.5,0.4c0.5,0.1,1,0.3,1.5,0.5l0.8,0.3
	l0.7,0.4c0.5,0.2,1,0.5,1.5,0.8c0.2,0.1,0.5,0.4,0.8,0.5c0.1,0.1,0.3,0.2,0.4,0.3l0.2,0.2c0,0,0.1,0.1,0.1,0.1l0.1,0.2L125.2,11.8z"
	/>
<g>
	<rect x="135.7" y="42.8" class="st0" width="6.7" height="11.1"/>
	<rect x="157.4" y="42.8" class="st0" width="6.7" height="11.1"/>
	<path class="st0" d="M157.4,56.7v8.2c0,6.9-2.6,10.4-7.6,10.4c-4.7,0-7.3-3.7-7.3-10.4v-8.2h-6.7v8.1c0,14.2,8.7,16.3,13.9,16.3
		c9.2,0,14.5-6,14.5-16.5v-7.9H157.4z"/>
</g>
<g>
	<rect x="173.2" y="42.8" class="st0" width="6.7" height="11.1"/>
	<polygon class="st0" points="179.9,56.7 173.2,56.7 173.2,80.5 195.1,80.5 195.1,74.6 179.9,74.6 	"/>
</g>
<g>
	<rect x="210.7" y="56.7" class="st0" width="6.7" height="23.8"/>
	<polygon class="st0" points="210.7,53.9 217.4,53.9 217.4,48.7 228.3,48.7 228.3,42.8 199.8,42.8 199.8,48.7 210.7,48.7 	"/>
</g>
<g>
	<rect x="237.5" y="42.8" class="st0" width="6.7" height="11.1"/>
	<rect x="237.5" y="56.7" class="st0" width="6.7" height="23.8"/>
</g>
</svg>