<?xml version="1.0" encoding="utf-8"?>
<!-- Generator: Adobe Illustrator 22.0.0, SVG Export Plug-In . SVG Version: 6.00 Build 0)  -->
<svg version="1.1" id="Capa_1" xmlns="http://www.w3.org/2000/svg" xmlns:xlink="http://www.w3.org/1999/xlink" x="0px" y="0px"
	  style="margin-top: 6.9rem;" xml:space="preserve">
<style type="text/css">
	.st0{fill:#FFFFFF;
  animation: myfirst 5s infinite;
  animation-direction: alternate;}

    
@keyframes myfirst {
  0%   {fill: #FFE7C7; left: 0px; top: 0px;}
  25%  {fill: #FFFFC7; left: 0px; top: 0px;}
  50%  {fill: #D7FFC7; left: 0px; top: 0px;}
  75%  {fill: #C7FFE6; left: 0px; top: 0px;}
  100% {fill: #DDC7FF; left: 0px; top: 0px;}
}
</style>
<path d="M76.8,4.4c-1.3-0.5-2.6-1-4-1.3c-1.3-0.4-2.7-0.7-4.1-0.8c-1.4-0.2-2.8-0.2-4.1,0C63.3,2.5,62,2.9,61,3.7
	c-0.5,0.4-0.9,0.9-1.3,1.4c-0.1,0.1-0.2,0.3-0.3,0.4L59.2,6c-0.2,0.3-0.4,0.6-0.5,0.9c-0.7,1.2-1.4,2.4-2.1,3.6
	c-1.4,2.4-2.7,4.9-3.8,7.4l-0.2,0.5l-0.6,0c-3.3,0.2-6.6,0.5-9.8,0.9c-3.3,0.4-6.5,0.8-9.7,1.6c-0.8,0.2-1.5,0.4-2.3,0.7
	c-0.7,0.3-1.4,0.6-1.9,1c-1.3,1-2.7,2-4.2,2.9c-1.5,0.9-3,1.7-4.7,2.2c-1.7,0.6-3.4,0.9-5.2,0.9c-1.8,0-3.6-0.3-5.2-0.9
	c-1.6-0.6-3.2-1.5-4.5-2.8c-0.7-0.6-1.2-1.4-1.7-2.2c-0.4-0.9-0.6-1.9-0.6-2.8c0.1-1,0.5-1.9,1.1-2.7c0.6-0.8,1.3-1.3,2-1.8
	c0.8-0.5,1.5-0.8,2.4-1.1c0.4-0.2,0.8-0.3,1.2-0.4l1.2-0.4c1.6-0.5,3.2-0.8,4.9-1.2c1.6-0.3,3.3-0.6,4.9-0.9
	c0.8-0.1,1.6-0.2,2.5-0.3c0.8-0.1,1.7-0.2,2.5-0.2c-3.3,0.5-6.5,1.3-9.7,2.1c-1.6,0.4-3.2,0.9-4.7,1.5L9.3,15
	c-0.4,0.1-0.8,0.3-1.1,0.4c-0.7,0.3-1.4,0.7-2.1,1.1c-0.6,0.4-1.2,1-1.6,1.6c-0.4,0.6-0.7,1.2-0.7,1.9c0,0.7,0.1,1.3,0.5,2
	c0.3,0.6,0.8,1.2,1.4,1.7c1.1,1,2.5,1.7,4,2.3c1.5,0.5,3,0.8,4.5,0.7c1.5,0,3.1-0.4,4.5-0.9c1.5-0.5,2.9-1.2,4.2-2.1
	c1.4-0.8,2.7-1.8,3.9-2.8l0.1-0.1l0.2-0.1c0.1-0.1,0.2-0.1,0.3-0.2c0.2-0.1,0.4-0.2,0.6-0.3c0.4-0.2,0.8-0.4,1.3-0.5
	c0.8-0.3,1.7-0.5,2.5-0.7c1.7-0.4,3.3-0.7,5-0.9c1.7-0.2,3.3-0.5,5-0.6c3.3-0.3,6.6-0.6,10-0.7L51,17.1c1.3-2.5,2.7-5,4.2-7.4
	c0.7-1.2,1.5-2.4,2.3-3.6c0.2-0.3,0.4-0.6,0.6-0.9l0.3-0.4c0.1-0.1,0.2-0.3,0.3-0.4c0.4-0.6,1-1.2,1.6-1.6c1.3-0.9,2.7-1.3,4.2-1.4
	c1.5-0.1,2.9,0,4.3,0.3C71.6,2.2,74.3,3.2,76.8,4.4z"/>
<path d="M56.6,12l0.8-0.4c0,0,0.5-1.3,2.1-1.3c1.6,0,3.4-0.2,3.4,1.5S62,14,60.1,14c-1.8,0-2.5-0.7-3.1-0.7
	C56.4,13.3,56.3,12.3,56.6,12z"/>
<polygon points="52,16.2 78,11.9 52.4,18.4 "/>
<path d="M50.3,23c0.4-0.3,0.8-0.5,1.2-0.8c0.4-0.2,0.9-0.4,1.3-0.6c0.9-0.3,1.9-0.5,3-0.4c0.5,0.1,1.1,0.2,1.5,0.5
	c0.5,0.3,0.9,0.7,1.3,1.1c0.3,0.4,0.6,0.9,0.8,1.4c0.1,0.2,0.1,0.5,0.2,0.7l0.1,0.4l0.1,0.4c0.2,1,0.2,2,0.1,3
	c-0.1,1-0.4,1.9-0.7,2.8c-0.4,0.9-0.8,1.8-1.4,2.5c-0.1,0.2-0.3,0.4-0.4,0.6c-0.2,0.2-0.3,0.4-0.5,0.5c-0.3,0.3-0.7,0.7-1.1,0.9
	c0.5-0.8,0.9-1.6,1.2-2.5c0.3-0.8,0.6-1.7,0.8-2.5c0.2-0.9,0.4-1.7,0.4-2.6c0-0.1,0-0.2,0-0.3l0-0.3c0-0.2,0-0.4,0-0.6l-0.1-0.6
	c0-0.2-0.1-0.4-0.1-0.6L58,25.9l-0.1-0.3c-0.1-0.2-0.1-0.4-0.2-0.6c-0.1-0.4-0.3-0.7-0.5-1c-0.4-0.6-1-1-1.8-1.3
	c-0.8-0.2-1.6-0.2-2.5-0.1C52.1,22.6,51.2,22.8,50.3,23z"/>
<path d="M53.7,19.7c-1.1,0.2-2.1,0.6-3,1.2c-0.9,0.6-1.7,1.3-2.4,2.1l-0.5,0.6l-0.4,0.7c-0.1,0.1-0.2,0.2-0.2,0.3L46.9,25
	c-0.1,0.2-0.3,0.5-0.4,0.7l-0.7,1.5c-0.2,0.5-0.4,1-0.7,1.5c0-0.6,0.1-1.1,0.2-1.7c0.1-0.6,0.3-1.1,0.5-1.7c0.1-0.3,0.2-0.5,0.3-0.8
	l0.2-0.4c0.1-0.1,0.1-0.3,0.2-0.4l0.5-0.8c0.2-0.2,0.4-0.5,0.5-0.7c0.8-0.9,1.7-1.7,2.8-2.2C51.3,19.7,52.5,19.5,53.7,19.7z"/>
<path d="M48.7,18.6c0,0.1,0,0.1-0.1,0.2L48.5,19c0,0.1-0.1,0.2-0.1,0.3c-0.1,0.2-0.2,0.4-0.3,0.6c-0.2,0.4-0.5,0.7-0.7,1.1
	c-0.5,0.7-1.1,1.3-1.7,1.9c-1.3,1.1-2.8,2-4.4,2.5c-1.6,0.5-3.3,0.6-4.9,0.5c-0.8-0.1-1.6-0.3-2.4-0.5c-0.8-0.2-1.5-0.6-2.2-1
	c0.7,0.3,1.5,0.5,2.3,0.7c0.8,0.1,1.6,0.2,2.3,0.2c1.5,0,3.1-0.4,4.4-1c1.4-0.6,2.6-1.4,3.6-2.5c0.5-0.5,0.9-1.1,1.3-1.7
	c0.2-0.3,0.3-0.6,0.5-1c0.1-0.2,0.1-0.3,0.2-0.5c0-0.1,0.1-0.2,0.1-0.2l0-0.1c0,0,0-0.1,0-0.1L48.7,18.6z"/>
<path d="M6.5,18.6c1.2,0.5,2.4,0.9,3.5,1.3c1.2,0.4,2.3,0.7,3.5,1c0.6,0.2,1.2,0.3,1.8,0.4c0.3,0.1,0.6,0.1,0.9,0.2l0.4,0.1
	c0.1,0,0.3,0,0.4,0.1c0.3,0,0.6,0.1,0.9,0.1c0.3,0,0.6,0,0.9,0.1c0.2,0,0.3,0,0.5,0c0.2,0,0.3,0,0.5,0c0.3,0,0.6,0,1,0.1
	c-0.3,0.1-0.6,0.3-0.9,0.4c-0.2,0.1-0.3,0.1-0.5,0.2c-0.2,0.1-0.3,0.1-0.5,0.1c-0.3,0.1-0.6,0.2-1,0.2c-0.3,0-0.7,0.1-1,0.1
	c-0.2,0-0.3,0-0.5,0l-0.5,0c-0.3,0-0.7,0-1,0c-0.3,0-0.7-0.1-1-0.1c-0.3,0-0.6-0.1-1-0.2c-1.3-0.3-2.5-0.8-3.6-1.5
	C8.4,20.5,7.4,19.7,6.5,18.6z"/>
<path d="M0.7,27.8c0,0.5,0.2,1,0.5,1.4c0.3,0.4,0.6,0.7,1,0.9c0.1,0.1,0.2,0.1,0.3,0.2l0.3,0.1l0.3,0.1c0.1,0,0.2,0.1,0.3,0.1
	c0.2,0,0.4,0.1,0.7,0.1c0.2,0,0.4,0.1,0.7,0.1c2,0.2,4.1,0.5,6.1,0.7c4.1,0.5,8.1,1.1,12.1,1.7c1,0.2,2,0.3,3,0.4c1,0.2,2,0.3,3,0.4
	c2,0.3,4,0.5,6,0.7c0.5,0,1,0.1,1.5,0.1c0.5,0,1,0,1.4,0c0.5,0,0.9,0,1.3-0.1c0.2,0,0.4-0.1,0.6-0.1c0.1,0,0.1,0,0.2-0.1l0.3-0.2
	c0.4-0.2,0.8-0.5,1.2-0.8c0.4-0.3,0.7-0.6,1-0.9c0.3-0.3,0.5-0.7,0.7-1.2c0.1-0.2,0.1-0.5,0-0.7c0-0.1-0.1-0.2-0.1-0.3
	c-0.1-0.1-0.1-0.2-0.3-0.3c0.1,0,0.3,0.1,0.4,0.1c0.1,0.1,0.2,0.2,0.3,0.3c0.2,0.2,0.2,0.5,0.3,0.8c0.1,0.6-0.1,1.2-0.3,1.7
	c-0.5,1.1-1.3,1.9-2.1,2.7l-0.3,0.3c-0.1,0.1-0.3,0.2-0.4,0.3c-0.3,0.2-0.6,0.3-0.9,0.4c-0.6,0.2-1.1,0.3-1.7,0.5
	c-1.1,0.2-2.2,0.3-3.2,0.4c-0.5,0-1.1,0-1.6,0c-0.5,0-1.1,0-1.6,0c-1.1,0-2.1-0.1-3.1-0.2c-1-0.1-2.1-0.2-3.1-0.3
	c-1-0.1-2.1-0.3-3.1-0.4c-4.1-0.6-8.1-1.5-12.1-2.6c-2-0.6-4-1.2-5.9-1.9c-1-0.4-2.1-0.9-2.9-1.8c-0.4-0.4-0.7-1-0.8-1.5
	C0.5,28.8,0.5,28.2,0.7,27.8z"/>
<path d="M52.2,17.6c-0.4-0.2-0.9-0.4-1.4-0.5c-0.5-0.2-0.9-0.3-1.4-0.5c-0.9-0.3-1.9-0.7-2.9-1c-1.9-0.6-3.9-1.2-5.8-1.7
	c-2-0.5-4-0.9-6-1.3c-2-0.3-4-0.6-6.1-0.7c2-0.2,4.1-0.3,6.2-0.2c2.1,0,4.1,0.2,6.2,0.4c2.1,0.2,4.1,0.5,6.2,0.8
	c1,0.2,2,0.3,3.1,0.5c0.5,0.1,1,0.2,1.5,0.3c0.5,0.1,1,0.2,1.6,0.4L52.2,17.6z"/>
<path d="M59.2,4.3L59.2,4.3C59.2,4.3,59.2,4.3,59.2,4.3L59.2,4.3C59.2,4.2,59.2,4.2,59.2,4.3C59.1,4.1,59,4.1,59,4
	c-0.1-0.1-0.3-0.2-0.4-0.3l-0.2-0.2L58,3.4c-0.2-0.1-0.3-0.2-0.5-0.3l-0.6-0.2l-0.6-0.2c-0.4-0.1-0.8-0.2-1.2-0.3
	c-1.7-0.4-3.4-0.6-5.2-0.7c-0.4,0-0.9,0-1.3,0l-0.7,0l-0.3,0l-0.3,0l-1.3,0.1c-0.4,0-0.9,0-1.3,0.1l-1.3,0.1C42.7,2,42.3,2,41.9,2
	l-2.7,0.3l2.6-0.6c0.4-0.1,0.9-0.2,1.3-0.3l1.3-0.3C44.9,1.1,45.4,1,45.8,1l1.3-0.2l0.3-0.1l0.3,0l0.7-0.1c0.5,0,0.9-0.1,1.4-0.1
	c1.8-0.1,3.7-0.1,5.6,0.1c0.5,0.1,0.9,0.1,1.4,0.2l0.7,0.2l0.7,0.2c0.2,0.1,0.5,0.2,0.7,0.3l0.4,0.1l0.4,0.2
	c0.2,0.1,0.5,0.3,0.7,0.4c0.1,0.1,0.2,0.2,0.4,0.3c0.1,0,0.1,0.1,0.2,0.2L61,2.6c0,0,0,0,0.1,0.1l0.1,0.1L59.2,4.3z"/>
<g>
	<rect x="64.1" y="18.8" width="3.2" height="5.2"/>
	<rect x="74.3" y="18.8" width="3.2" height="5.2"/>
	<path d="M74.3,25.4v3.9c0,3.2-1.2,4.9-3.6,4.9c-2.2,0-3.4-1.7-3.4-4.9v-3.9h-3.2v3.8c0,6.7,4.1,7.7,6.5,7.7c4.3,0,6.8-2.8,6.8-7.8
		v-3.7H74.3z"/>
</g>
<g>
	<rect x="81.7" y="18.8" width="3.1" height="5.2"/>
	<polygon points="84.9,25.4 81.7,25.4 81.7,36.6 92.1,36.6 92.1,33.8 84.9,33.8 	"/>
</g>
<g>
	<rect x="99.4" y="25.4" width="3.2" height="11.2"/>
	<polygon points="99.4,24 102.5,24 102.5,21.6 107.7,21.6 107.7,18.8 94.3,18.8 94.3,21.6 99.4,21.6 	"/>
</g>
<g>
	<rect x="112" y="18.8" width="3.1" height="5.2"/>
	<rect x="112" y="25.4" width="3.1" height="11.2"/>
</g>
</svg>
